<svg width="100" height="100" viewBox="0 0 100 100" xmlns="http://www.w3.org/2000/svg">
  <!-- Circle -->
  <circle cx="50" cy="50" r="48" stroke="black" stroke-width="4" fill="none"/>

  <!-- Larger tear drop shapes closer to circles with a small point towards the center -->
  <path d="M50 18 C60 18, 60 36, 50 44 C40 36, 40 18, 50 18 Z" fill="black"/>
  <path d="M82 50 C82 60, 64 60, 56 50 C64 40, 82 40, 82 50 Z" fill="black"/>
  <path d="M50 82 C40 82, 40 64, 50 56 C60 64, 60 82, 50 82 Z" fill="black"/>
  <path d="M18 50 C18 40, 36 40, 44 50 C36 60, 18 60, 18 50 Z" fill="black"/>
</svg>
